<svg id="Layer_1" data-name="Layer 1" xmlns="http://www.w3.org/2000/svg" viewBox="0 0 835.54 1032.44"><defs><style>.cls-1{fill:#36ba65;}.cls-2{fill:#356cbb;}.cls-3{fill:#346cbb;}.cls-4{fill:#2bc56b;}.cls-5{fill:#096fce;}.cls-6{fill:#156ec8;}</style></defs><path class="cls-1" d="M261.27,699.51l-43.5,34.92c-7.29,5.86-14.5,11.84-21.9,17.58a7,7,0,0,0-3,6.32c.12,17.86,0,35.72.11,53.58,0,2.37-.51,3.81-2.7,5.06q-24.57,14-49,28.24a4,4,0,0,1-4.7-.11Q112.42,831,88,817a4.9,4.9,0,0,1-2.92-4.93q.21-27.92,0-55.83a4.63,4.63,0,0,1,2.65-4.71q24.54-14,48.94-28.26c2-1.16,3.28-.82,5,.19,13.47,7.85,27,15.54,40.45,23.5,2.65,1.57,4.22,1.25,6.5-.61q32.82-26.71,65.79-53.24c1.15-.93,2.13-2.08,3.19-3.12,12.16-8.74,23.54-18.47,35-28,5-3.95,9.9-8,15-11.78,2.07-1.53,2.42-2.8,1.52-5.25a22.43,22.43,0,0,1,12.69-29.07l.31-.12c2.42-1,2.91-2.12,2.52-4.41-1.3-7.66-1.26-15.41-1.25-23.15q0-57.5.05-115c0-2.33-.55-3.71-2.7-5a22.3,22.3,0,0,1-8.31-29.71c1.16-2.26.65-3.17-1.05-4.53-8.88-7.07-17.68-14.25-26.53-21.36-1-.85-1.94-2-3.48-2-.13-1.12-1-1.65-1.79-2.27-7.74-6.28-15.45-12.59-23.23-18.82-5.82-4.66-11.73-9.21-17.6-13.81l-33.88-27.7c-6.38-5.2-12.94-10.2-19.17-15.57-2.38-2.05-4.05-1.8-6.52-.35-13.32,7.85-26.77,15.48-40.11,23.3-2.14,1.25-3.75,1.44-6,.1q-23.87-14-47.93-27.71c-2.16-1.23-3.13-2.52-3.11-5.2q.23-27.71,0-55.42c0-2.4.58-3.8,2.75-5q24.54-14,48.93-28.23a4,4,0,0,1,4.69.1q24.26,14.1,48.61,28c2.27,1.29,2.94,2.77,2.92,5.31-.11,17.85,0,35.7-.09,53.55,0,2.1.29,3.71,2.13,5.18C207.5,338.5,222.9,351,238.35,363.45a30.43,30.43,0,0,0,3.15,2,6.94,6.94,0,0,0,1.07,1.46c6.24,5.12,12.39,10.38,18.81,15.28,6.71,5.12,12.87,10.94,19.93,15.6a10.36,10.36,0,0,0,1.23,1.41c12,9.73,24.08,19.41,36,29.22,1.71,1.4,2.9.56,4.37-.09,8.51-3.76,16.57-2.92,23.9,2.79a5.13,5.13,0,0,0,5.72.84c14.72-5.47,29.5-10.81,44.26-16.17q35.67-13,71.35-25.94c1.75-.63,3.54-.86,3.68-3.79.51-10.39,5.91-17.49,15.73-21,1.75-.63,2.19-1.37,2.18-3.12-.09-13.72-.06-27.45-.07-41.17q-.06-22.83-.1-45.66c0-25,0-49.94.19-74.91,0-2.27-1.23-3-2.75-3.87-14.48-8.35-28.92-16.76-43.46-25-2.49-1.41-3.36-2.93-3.33-5.83q.24-27.54,0-55.07a4.89,4.89,0,0,1,2.89-5q24.36-13.92,48.6-28.06a4.3,4.3,0,0,1,5,0q24.09,14,48.28,27.88c2.13,1.21,3.16,2.48,3.14,5.19q-.24,27.7,0,55.43a5.19,5.19,0,0,1-3.09,5.22c-14.19,8.09-28.27,16.39-42.52,24.37-3,1.7-4,3.61-3.94,7,.18,24.1.13,48.19.16,72.29v45.56c0,13.73,0,27.46-.13,41.2,0,1.92.5,2.68,2.46,3.3,9.76,3.08,15.87,11,16.21,21,.08,2.38,1,3.19,3,3.91q61.92,22.42,123.8,45c1.77.65,2.82.56,4.18-.9,8.24-8.83,19.27-10.4,29.45-4.14,1.74,1.06,2.75.89,4.18-.28,7.72-6.33,15.52-12.58,23.25-18.89a16.5,16.5,0,0,0,1.94-2.23c5.33-2.8,9.51-7.12,14.14-10.84,9.57-7.68,19-15.5,28.53-23.27l39.15-31.33c5.85-4.68,11.58-9.51,17.52-14.06a7.63,7.63,0,0,0,3.36-6.87c-.17-16.86,0-33.72-.14-50.59a4.65,4.65,0,0,1,2.66-4.7q24.54-14,49-28.25a4,4,0,0,1,4.7,0q24.4,14.24,49,28.24a4.64,4.64,0,0,1,2.64,4.72q-.15,27.92,0,55.83a4.89,4.89,0,0,1-2.91,4.94Q890.3,346,866.05,360.17a4.24,4.24,0,0,1-5-.11c-14.44-8.42-29-16.74-43.4-25.14-1.63-.95-2.79-1.47-4.6,0q-31.63,25.8-63.4,51.42c-7.95,6.34-16,12.56-23.81,19.07-6.29,5.24-13,10-18.87,15.72-6.67,4.41-12.46,10-18.85,14.73-2,1.47-2.23,2.62-1.39,4.91,5.1,13.89-3.33,28.41-18,30.56-3.38.49-3.83,1.57-3.82,4.52.09,37.84,0,75.68.1,113.52a191.47,191.47,0,0,1-2.73,32.42,4.05,4.05,0,0,0,1.79,4.41c7.54,5.94,10.55,13.69,8.57,23.16a4,4,0,0,0,1.66,4.47c5.68,4.49,11.28,9.08,16.91,13.62.67.54,1.3,1.22,2.3,1a2.65,2.65,0,0,0,1.17,1.82c6.84,5.51,13.65,11,20.54,16.5,4.25,3.35,8.08,7.26,12.87,9.91,6,6.16,13.14,11.09,19.79,16.54,16,13.12,32.24,26,48.28,39.15,2.5,2,4.26,2.58,7.37.71,14.34-8.59,28.92-16.77,43.35-25.21a4.33,4.33,0,0,1,5,0Q876.12,742,900.5,755.93a4.87,4.87,0,0,1,2.81,5q-.18,27.92,0,55.82a4.64,4.64,0,0,1-2.73,4.67q-24.52,14-48.94,28.25a4,4,0,0,1-4.69-.1q-24.27-14.12-48.64-28c-2.27-1.29-2.92-2.78-2.91-5.31.12-16.61,0-33.22.1-49.83a5.35,5.35,0,0,0-2.11-4.79q-33.4-26.86-66.7-53.88a24.3,24.3,0,0,0-2.52-1.59c-3.63-3.93-8.08-6.89-12.21-10.21-7.32-5.89-14.3-12.22-22.08-17.53-6.34-6-13.53-11-20.11-16.74-1.81-1.56-2.94-1.4-4.64.15a20.28,20.28,0,0,1-13.25,5.38c-2.35.07-3.42.89-4.39,3-13,28-31.61,51.66-56.4,70.14-23.7,17.67-47.75,34.88-71.65,52.29-1.7,1.24-3.28,2.18-2.74,5,2.4,12.56-3.7,22.89-15.77,26.84-1.81.59-2.33,1.28-2.31,3,.08,11.35.07,22.71.1,34.06q0,26.35,0,52.72c0,23.72,0,47.45-.18,71.18,0,2.32,1.37,3,2.85,3.81,14.48,8.35,28.93,16.76,43.48,25a5.44,5.44,0,0,1,3.19,5.54q-.2,27.72,0,55.45a4.65,4.65,0,0,1-2.66,4.7q-24.54,14-49,28.25a4,4,0,0,1-4.69,0q-24.42-14.24-49-28.24a4.65,4.65,0,0,1-2.65-4.71q.15-27.91,0-55.83a4.92,4.92,0,0,1,2.93-4.93c14.63-8.34,29.2-16.78,43.79-25.2,1.49-.86,2.83-1.52,2.82-3.83-.15-23.72-.15-47.45-.18-71.18V861.62c0-11,0-22,.13-33,0-2.57-.6-3.79-3.22-4.73-10.31-3.68-16.56-14.59-14.41-25,.54-2.66-.13-4-2.23-5.54q-24.33-17.51-48.5-35.22c-14.58-10.71-29.74-20.7-42.62-33.59A188.52,188.52,0,0,1,337,662c-.54-1.3-.57-2.86-2.93-2.41A22,22,0,0,1,317.89,656c-.89-.58-1.68-1.14-2.67-.29-6.33,5.42-13.36,10-19.16,16.08-2.7.65-4.26,2.92-6.27,4.53C280.24,684,270.77,691.77,261.27,699.51ZM511.19,746h5.53a9.23,9.23,0,0,0,1.46-.3c13.21-2.48,23.53-9.32,31.56-20.1,6.77-9.1,13.35-18.24,17.91-28.72a51.18,51.18,0,0,1,10.8-16c9.8-9.81,12-21.92,9.69-35.19-1.64-9.33-.56-18.09,5.66-25.64,3.55-4.32,7.34-8.45,11-12.64,8.57-9.75,15.42-20.41,18.14-33.35,2.32-11.07-4-20-15.09-21.44a74.48,74.48,0,0,1-10.57-2.06c-10.12-2.88-15.9-10.82-21-19.15C569.86,520.82,565,509.51,560.47,498c-3.4-8.77-9.73-14.63-19.54-15.91-7-.91-13.95-2.3-21-2.74-3.95-.25-8-1.68-11.85-.74-10.39,2.52-18.53-1.12-25.51-8.47-7.44-7.84-17-9.52-27.06-8.76-6.89.53-13.71,2-20.6,2.8C422,465.66,410.48,470,402,480.39c-6.17,7.57-13.54,13.95-20.27,21a56.41,56.41,0,0,0-8.92,12.38c-4.92,9.18-5.91,19.38-7.56,29.42-1.55,9.39-.75,18.34,3.87,26.78,4.76,8.68,10.41,16.74,17.84,23.31a38,38,0,0,0,17.89,8.82c9.85,2,19.56,0,29.26-1.12,7.35-.84,15,1.72,18.16,8.63,3.59,7.94,6.07,16.35,10.44,24,4.55,7.91,5.35,16.27,3.35,25.2-1.89,8.48-1.79,17,1.38,25.35,5.33,14,9.8,28.22,16,41.81C489.09,738,496.86,747.12,511.19,746ZM451.38,109.19c14.12,8.13,27.83,16,41.47,24,1.6.94,2.56.17,3.72-.49l19.11-11,21.51-12.54c-14.13-8.16-27.73-16-41.29-23.89a2.9,2.9,0,0,0-3.39.11c-4,2.38-8,4.64-12,6.94ZM892,760c-.21-.34-.29-.63-.47-.74-13.49-7.82-27-15.59-40.45-23.46-1.53-.9-2.49-.32-3.7.38-5.6,3.28-11.23,6.5-16.85,9.74l-23.94,13.84c14.14,8.14,27.85,16,41.53,24a2.63,2.63,0,0,0,3.06-.15Q871.56,771.73,892,760ZM451.38,1018.32c14.12,8.14,27.84,16,41.48,24,1.61.94,2.57.15,3.72-.51l37.9-21.91c.78-.45,1.53-.95,2.61-1.63-14-8.1-27.64-15.93-41.2-23.84a2.85,2.85,0,0,0-3.38.14c-4,2.37-8,4.63-12,6.94ZM93.19,265.83c14.09,8.12,27.71,15.95,41.3,23.82a2.63,2.63,0,0,0,3.07.14c13.66-7.94,27.36-15.82,41.48-24-14.2-8.21-28-16.17-41.78-24.18-1.08-.63-1.83-.24-2.73.28C120.93,249.8,107.34,257.64,93.19,265.83Zm813.38,4.54c-.86-.55-1.36-.89-1.88-1.19C892,261.82,879.18,254.52,866.51,247c-2.18-1.29-3.65-1.05-5.68.14-12.26,7.21-24.6,14.27-36.89,21.41-.91.52-2.16.67-2.59,2,11,6.36,22.37,12.21,32.92,19.26,6.83,4.55,12,4.61,18.85.06,10.62-7,22.07-12.93,33.43-19.52ZM96.19,755.25c14,8.1,27.68,15.9,41.23,23.83,1.69,1,2.75.34,4-.42l34-19.67c1.9-1.1,4-1.91,5.69-3.67a11.54,11.54,0,0,0-1.73-1.54c-12.94-7.51-25.92-15-38.82-22.53-1.57-.92-2.52-.21-3.71.47q-13.59,7.88-27.2,15.71ZM448.07,115.7a8.87,8.87,0,0,0-.3,1.43q0,22.83-.07,45.65c0,2,.94,2.85,2.43,3.71q19,10.88,37.9,21.82c.7.4,1.36,1.21,2.58.52v-47c0-1.79-1.19-2.27-2.36-3L469.5,128.06Zm92.76-.17c-14.15,8.16-27.61,16-41.12,23.67a3.28,3.28,0,0,0-1.76,3.33q.06,22.08,0,44.15c0,2.06.08,3.17,2.56,1.72q19.2-11.22,38.51-22.25a3,3,0,0,0,1.84-2.9C540.81,147.56,540.83,131.86,540.83,115.53ZM910.27,276.67c-14.16,8.17-27.63,16-41.14,23.69a3.27,3.27,0,0,0-1.74,3.33q.06,22.08,0,44.16c0,2.14.17,3.09,2.58,1.68q19.2-11.22,38.51-22.25a3,3,0,0,0,1.82-2.91c0-15.69,0-31.41,0-47.7Zm-93.07,0V324.4a3,3,0,0,0,1.85,2.89q19.28,11.08,38.52,22.25c1.79,1,2.56,1.11,2.55-1.35q-.11-22.26,0-44.53a3.27,3.27,0,0,0-1.77-3.32c-13.55-7.73-27-15.53-41.16-23.68Zm-634.57-4.48c-14.15,8.15-27.61,15.94-41.12,23.67a3.29,3.29,0,0,0-1.77,3.32q.07,22.08,0,44.15c0,2.05.07,3.18,2.55,1.73,12.8-7.49,25.66-14.87,38.51-22.26a3,3,0,0,0,1.85-2.89c0-15.71,0-31.4,0-47.73Zm-93.08,0v47.73a3,3,0,0,0,1.85,2.89q19.29,11.08,38.52,22.25c1.77,1,2.56,1.14,2.55-1.34q-.09-22.26,0-44.53a3.27,3.27,0,0,0-1.77-3.32c-13.51-7.76-27-15.55-41.15-23.71Zm96.08,489.43c-14.16,8.17-27.63,16-41.14,23.69a3.29,3.29,0,0,0-1.75,3.33q.06,22.08,0,44.15c0,2.12.16,3.11,2.58,1.7q19.2-11.24,38.51-22.26a3,3,0,0,0,1.82-2.9c0-15.72,0-31.37,0-47.74ZM803,766.11v47.7a3,3,0,0,0,1.83,2.91q19.25,11,38.49,22.24c1.71,1,2.58,1.25,2.57-1.31q-.11-22.44,0-44.9a3,3,0,0,0-1.75-3c-13.51-7.72-27-15.51-41.14-23.67Zm93.08.38a8.46,8.46,0,0,0-1.4.45L855.1,789.67a3.58,3.58,0,0,0-2,3.6c.06,14.59.1,29.18,0,43.77,0,3,.72,3.08,3,1.71q18.72-10.95,37.55-21.68a4.08,4.08,0,0,0,2.37-4.13c-.11-10.1-.05-20.2-.05-30.3ZM92.55,761.6v47.77a3,3,0,0,0,1.87,2.88q19.29,11.07,38.52,22.24c1.87,1.09,2.54,1,2.53-1.38-.06-14.85,0-29.69,0-44.53,0-1.3-.1-2.33-1.47-3.11-13.65-7.82-27.22-15.68-41.45-23.9ZM448,1024.79c-.1,1-.19,1.45-.19,1.92,0,15,.06,29.94-.08,44.91,0,2.35,1.1,3.25,2.81,4.24,12.33,7.06,24.62,14.19,36.94,21.25.9.52,1.7,1.58,3.18.93v-46.69a3,3,0,0,0-1.74-3c-13.47-7.74-26.94-15.52-40.92-23.59Zm50,73.45c.76,0,1.05.09,1.22,0,13.29-7.63,26.54-15.33,39.87-22.89,1.83-1,1.78-2.43,1.78-4.06v-43.41c0-.88.51-2-.66-2.77l-40.44,23.3a3,3,0,0,0-1.76,2.95c0,15.54,0,31.12,0,46.85ZM510,386.73a13.53,13.53,0,1,0,0,.15v-.18Zm155.94,46.78a13.7,13.7,0,1,0,.21,0H666ZM494.74,818a15.33,15.33,0,1,0-.21,0ZM665.89,644.37a15.35,15.35,0,1,0,0,.21ZM332.76,464.2a15.23,15.23,0,1,0-.19,0Zm-2.2,157.4a15.28,15.28,0,1,0,.15,0Z" transform="translate(-82.07 -76.57)"/><path class="cls-2" d="M261.27,699.51c9.5-7.74,19-15.53,28.52-23.21,2-1.61,3.57-3.88,6.27-4.53,1.42,3.59,2.74,7.23,4.27,10.77,16.4,38.19,40.78,70.32,74,95.26,29.84,22.39,60.22,44,90.41,66,8.27,6,16.29,12.35,24.94,17.81v52.71c-11.15-8-22.33-16-33.43-24q-50.61-36.74-101.16-73.53A280.36,280.36,0,0,1,261.27,699.51Z" transform="translate(-82.07 -76.57)"/><path class="cls-2" d="M498.91,914.32q0-26.37-.05-52.72c1.16-.7,2.38-1.32,3.48-2.12,33.11-24.06,66.13-48.24,99.34-72.17,18.1-13,35-27.33,49.43-44.43A241.48,241.48,0,0,0,690,678.42c7.78,5.31,14.76,11.64,22.08,17.53,4.13,3.32,8.58,6.28,12.21,10.21-20.62,45-51.19,81.8-91.19,110.88q-65.85,47.85-131.65,95.77A28.63,28.63,0,0,1,498.91,914.32Z" transform="translate(-82.07 -76.57)"/><path class="cls-3" d="M238.86,375.66c5.87,4.6,11.78,9.15,17.6,13.81,7.78,6.23,15.49,12.54,23.23,18.82.77.62,1.66,1.15,1.79,2.27,0,1.63.06,3.25.06,4.87V592.86A227.5,227.5,0,0,0,292.72,662c-11.49,9.57-22.87,19.3-35,28-5.38-12.68-9-25.89-12-39.29-2.7-12.06-4.22-24.3-5.72-36.57a181.63,181.63,0,0,1-1.12-22q-.09-106.77,0-213.54A23.27,23.27,0,0,1,238.86,375.66Z" transform="translate(-82.07 -76.57)"/><path class="cls-3" d="M707.06,421.16c5.85-5.76,12.58-10.48,18.87-15.72,7.81-6.51,15.86-12.73,23.81-19.07q0,44.19.06,88.38c0,39.94.17,79.89-.08,119.83-.15,25.2-4.39,49.86-11.43,74-2.78,9.57-5.81,19.06-10.09,28.1-4.79-2.65-8.62-6.56-12.87-9.91-6.89-5.45-13.7-11-20.54-16.5a2.68,2.68,0,0,1-1.17-1.82c.41-1,.88-2.07,1.22-3.14a244.64,244.64,0,0,0,12.23-76.47Q707,505,707.06,421.16Z" transform="translate(-82.07 -76.57)"/><path class="cls-2" d="M749.89,374.2c-9.5,7.77-19,15.59-28.53,23.27-4.63,3.72-8.81,8-14.14,10.83-.06-1.37-.17-2.74-.17-4.1,0-8.45,0-8.38-8-11.26q-63-22.87-126.06-45.8-37-13.45-74.12-26.84V274.74L590.25,308q42.69,15.56,85.37,31.15,34.25,12.47,68.57,24.86c5.57,2,5.6,1.93,5.66,8C749.82,372.71,749.86,373.46,749.89,374.2Z" transform="translate(-82.07 -76.57)"/><path class="cls-2" d="M281.38,397.67c-7.06-4.66-13.22-10.48-19.93-15.6-6.42-4.9-12.57-10.16-18.81-15.28a6.94,6.94,0,0,1-1.07-1.46c18.1-6.67,36.17-13.4,54.29-20,21.29-7.76,42.62-15.4,63.92-23.14q52.65-19.12,105.28-38.32c8.19-3,16.41-5.9,24.61-8.85q0,22.83.1,45.66a23.17,23.17,0,0,0-3.29.69q-33.57,12.19-67.11,24.44-32,11.64-64,23.25l-71.34,26C282.71,395.52,281.44,396,281.38,397.67Z" transform="translate(-82.07 -76.57)"/><path class="cls-4" d="M511.19,746c-14.3,1.13-22.07-8-27.62-20.07-6.24-13.59-10.71-27.86-16-41.81-3.17-8.31-3.27-16.87-1.38-25.35,2-8.93,1.2-17.29-3.35-25.2-4.37-7.61-6.85-16-10.44-24-3.21-6.84-10.88-9.4-18.21-8.57-9.7,1.11-19.41,3.09-29.26,1.12A38,38,0,0,1,387,593.26c-7.45-6.56-13.1-14.62-17.85-23.3-4.62-8.44-5.42-17.39-3.87-26.78,1.65-10,2.64-20.24,7.56-29.42a56.41,56.41,0,0,1,8.92-12.38c6.73-7,14.1-13.4,20.27-21,8.48-10.4,20-14.73,32.91-16.23,6.89-.8,13.71-2.27,20.6-2.8,10.1-.76,19.62.92,27.06,8.76,7,7.35,15.12,11,25.51,8.47,3.87-.94,7.9.49,11.85.74,7,.44,14,1.83,21,2.74,9.81,1.28,16.14,7.14,19.54,15.91,4.48,11.53,9.39,22.84,15.81,33.39,5.06,8.33,10.84,16.27,21,19.15a74.48,74.48,0,0,0,10.57,2.06C619,554,625.33,562.94,623,574c-2.72,12.94-9.57,23.6-18.14,33.35-3.69,4.19-7.48,8.32-11,12.64-6.22,7.55-7.3,16.31-5.66,25.64,2.33,13.27.11,25.38-9.69,35.19a51.18,51.18,0,0,0-10.8,16c-4.56,10.48-11.14,19.62-17.91,28.72-8,10.78-18.35,17.62-31.56,20.1a9.23,9.23,0,0,1-1.46.3C515.07,746,513.45,746,511.19,746ZM404.33,498.6c-1,.66-2,1.72-3.16,1.91-3.82.65-6.15,3-8.74,5.69-3.3,3.43-5.81,7.42-8.78,11-2.42,3-5.83,6.25-4.48,10.94.76,2.63.16,5.17.19,7.76.08,7-5.52,12.65-4,20.22.54,2.76,1,5.1,2.69,7.23,2.55,3.19,5.85,6,7.19,9.86A17.79,17.79,0,0,0,390,580.6c2.64,2.46,5.53,4.69,7.95,7.35,3.47,3.83,7.61,4.41,12.26,3.32,3.91-.91,7.82-1.64,11.79-.51,3.08.88,5.75,0,8.56-1.26,3.13-1.46,6.33-2.93,9.86-3.31,1.87.06,3.75.22,5.61.14,2.12-.08,3.84.7,4.58,2.58,1.87,4.76,5.54,4.61,9.56,3.94,4.76-.8,7.73,2.1,7,6.81a30.53,30.53,0,0,1-.82,3.65c-2,7.11-2.27,13.73,4.06,19.25,3.94,3.43,5.56,8.44,7.64,13.13,1.77,4,1.62,8.31,2.91,12.31a9.6,9.6,0,0,1-1.67,9.79,13.43,13.43,0,0,0-1.62,2.92c-4.1,8.72-2.08,16.72,2.84,24.42,2.63,4.11,5.17,8.39,5.43,13.38.34,6.36,2.71,11.72,6.36,16.86,2.34,3.31,3.8,7.25,5.64,10.91a3,3,0,0,1-.1,2.48c-1,2.87,2.83,7.62,5.8,7.23,5.29-.69,10.46-2,15.88-2.06a19.25,19.25,0,0,0,11.6-4.56c5.26-4.18,8.48-10.09,13.22-14.7a8.3,8.3,0,0,0,2.45-6.51c-.3-3.33,1.41-4.85,4.29-6.08,6.12-2.63,7.32-5.29,6-11.85a10.12,10.12,0,0,0-.57-2.16c-1.65-3.57.07-5.83,2.78-7.92a107,107,0,0,1,12.87-8.32c3.65-2.06,5.76-4.93,5.53-9.39-.2-4,0-7.94,0-11.92a10.24,10.24,0,0,0-.93-4.32c-4.11-9.22-5.39-18.6,1.54-26.9,5.33-6.39,10.31-13.19,17-18.4a32.09,32.09,0,0,0,4.92-5.1c6.67-8.18,10-18,13.72-27.7a12.3,12.3,0,0,0,.28-4.44c0-2.65-1.24-3.25-3.64-2.09-4.32,2.08-9.11,2.89-13.45,5-3.64,1.79-7.26.81-10.69-1.12-.76-.42-1.39-.76-.79-1.61,2.19-3.06.3-4.72-2-6.39-2.92-2.13-5.73-4.42-8.64-6.57a11.82,11.82,0,0,1-4.53-5.8,11.57,11.57,0,0,0-4.56-6.19,6.16,6.16,0,0,1-2.74-5,16.76,16.76,0,0,0-5-10.92c-2.86-3-3.46-7.73-6.52-10.77a20.22,20.22,0,0,1-4.88-8.27l.16-.14c1.15-.33,2.16,1.8,3.33.26,2.11-2.78-.64-9.71-3.85-10.71-3.7-1.17-7.49,2-11.09-.52-.29-.2-1.11.44-1.71.61a6.63,6.63,0,0,1-2.52.58c-6.42-.78-12.83-1.85-18.72-4.64-5-2.36-8.56-.92-9.88,4.38-.93,3.73-2.46,4.53-5.94,2.59s-7.8-2.15-9.91-6.17c-.27-.51-1.3-.74-2-.86-4-.64-7.91-1.22-11.28-4.1-1.29-1.1-2-1.48-.67-2.49,2.7-2.1.4-5.69,2.6-7.9.33-.34-.27-.77-.75-1-2.21-1.13-4.17-1.8-6.95-1.06a31.79,31.79,0,0,1-11.08.75c-6.28-.62-12.18.15-17.68,3.18a11.77,11.77,0,0,1-13.28-.6c-1-.68-1.84-1-2.53.11-2.61,4-6.66,6.29-10.52,8.81a9.81,9.81,0,0,0-4.08,6.11A17,17,0,0,1,404.33,498.6Z" transform="translate(-82.07 -76.57)"/><path class="cls-5" d="M546.71,504a20.22,20.22,0,0,0,4.88,8.27c3.06,3,3.66,7.77,6.52,10.77a16.76,16.76,0,0,1,5,10.92,6.16,6.16,0,0,0,2.74,5,11.57,11.57,0,0,1,4.56,6.19,11.82,11.82,0,0,0,4.53,5.8c2.91,2.15,5.72,4.44,8.64,6.57,2.31,1.67,4.2,3.33,2,6.39-.6.85,0,1.19.79,1.61,3.43,1.93,7,2.91,10.69,1.12,4.34-2.13,9.13-2.94,13.45-5,2.4-1.16,3.6-.56,3.64,2.09a12.3,12.3,0,0,1-.28,4.44c-3.69,9.66-7,19.52-13.72,27.7a32.1,32.1,0,0,1-5,5.13c-6.67,5.21-11.65,12-17,18.4-6.93,8.3-5.65,17.68-1.54,26.9a10.24,10.24,0,0,1,.93,4.32c0,4-.2,8,0,11.92.23,4.46-1.88,7.33-5.53,9.39a108,108,0,0,0-12.86,8.3c-2.71,2.09-4.43,4.35-2.78,7.92a10.12,10.12,0,0,1,.57,2.16c1.35,6.56.15,9.22-6,11.85-2.88,1.23-4.59,2.75-4.29,6.08a8.3,8.3,0,0,1-2.45,6.51c-4.74,4.61-8,10.52-13.22,14.7a19.25,19.25,0,0,1-11.6,4.56c-5.42.11-10.59,1.37-15.88,2.06-3,.39-6.79-4.36-5.8-7.23a3,3,0,0,0,.1-2.48c-1.84-3.66-3.3-7.6-5.64-10.91-3.65-5.14-6-10.5-6.36-16.86-.26-5-2.8-9.27-5.43-13.38-4.92-7.7-6.94-15.7-2.84-24.42a13.43,13.43,0,0,1,1.62-2.92,9.6,9.6,0,0,0,1.67-9.79c-1.29-4-1.14-8.31-2.91-12.31-2.08-4.69-3.7-9.7-7.64-13.13-6.33-5.52-6-12.14-4.06-19.25a30.53,30.53,0,0,0,.82-3.65c.7-4.71-2.27-7.61-7-6.81-4,.67-7.69.82-9.56-3.94-.74-1.88-2.46-2.66-4.58-2.58-1.86.08-3.74-.08-5.61-.13-2-4.52-4.11-9-6-13.56-2.89-7-5.25-14.25-8.53-21-3.06-6.31-5.76-12.78-8.44-19.22-2.56-6.16-5.39-12.22-7.72-18.47-1.89-5.06-5-9.73-5.33-15.35a17,17,0,0,0,4-7.47,9.81,9.81,0,0,1,4.08-6.11c3.86-2.52,7.91-4.78,10.52-8.81.69-1.08,1.54-.79,2.53-.11a11.77,11.77,0,0,0,13.28.6c5.5-3,11.4-3.8,17.68-3.18a31.79,31.79,0,0,0,11.08-.75c2.78-.74,4.74-.07,6.95,1.06.48.25,1.08.68.75,1-2.2,2.21.1,5.8-2.6,7.9-1.29,1-.62,1.39.67,2.49,3.37,2.88,7.26,3.46,11.28,4.1.71.12,1.74.35,2,.86,2.11,4,6.52,4.28,9.91,6.17s5,1.14,5.94-2.59c1.32-5.3,4.89-6.74,9.88-4.38,5.89,2.79,12.3,3.86,18.72,4.64a6.63,6.63,0,0,0,2.52-.58c.6-.17,1.42-.81,1.71-.61,3.6,2.47,7.39-.65,11.09.52,3.21,1,6,7.93,3.85,10.71-1.17,1.54-2.18-.59-3.33-.26l-.33-.95-.41.3Z" transform="translate(-82.07 -76.57)"/><path class="cls-6" d="M404.33,498.6c.3,5.62,3.44,10.29,5.33,15.35,2.33,6.25,5.16,12.31,7.72,18.47,2.68,6.44,5.38,12.91,8.44,19.22,3.28,6.79,5.64,14,8.53,21,1.88,4.56,4,9,6,13.56-3.53.37-6.73,1.84-9.86,3.3-2.81,1.31-5.48,2.14-8.56,1.26-4-1.13-7.88-.4-11.79.51-4.65,1.09-8.79.51-12.26-3.32-2.42-2.66-5.31-4.89-7.95-7.35a17.79,17.79,0,0,1-4.71-7.39c-1.34-3.81-4.64-6.67-7.19-9.86-1.71-2.13-2.15-4.47-2.69-7.23-1.49-7.57,4.11-13.24,4-20.22,0-2.59.57-5.13-.19-7.76-1.35-4.69,2.06-8,4.48-10.94,3-3.62,5.48-7.61,8.78-11,2.59-2.69,4.92-5,8.74-5.69C402.3,500.32,403.28,499.26,404.33,498.6Z" transform="translate(-82.07 -76.57)"/><path class="cls-4" d="M546.71,504l-.58-.79.41-.3.33.95Z" transform="translate(-82.07 -76.57)"/></svg>