<svg xmlns="http://www.w3.org/2000/svg" width="237.642" height="114" viewBox="0 0 237.642 114">
  <g id="Group_275" data-name="Group 275" transform="translate(-25.628 -7)">
    <path id="Path_208" data-name="Path 208" d="M-503.615,0l.413.165,2.067,1.157,3.555,2.067v6.944l-2.315,1.323-2.149,1.24-.827.5h-.165l.083,8.515,3.307,1.24,1.9.661,1.736.661,1.9.661,1.736.661,1.9.661,1.736.661,1.9.661,1.736.661,1.9.661,1.736.661,1.9.661,1.736.661,1.9.661.579.248.083.827,2.645-2.149,1.157-.909,1.405-1.157,1.157-.909.083-.083.083-6.448,2.315-1.323,2.149-1.24,1.405-.827.413.165,2.067,1.157,3.555,2.067v6.944l-2.315,1.323-2.149,1.24-1.405.827-.413-.165-2.067-1.157-1.984-1.157-.827-.5-.331.083-1.157.909-.909.744-1.323,1.075-1.157.909-1.405,1.157-.909.744h-.165V58.777l-.083.248-.165,1.571-.331,2.149-.579,2.4-.909,2.728-.248.661,1.075.909.827.661,1.323,1.075,1.157.909,1.405,1.157.827.661,1.157.909.5-.165,1.405-.827,2.149-1.24,1.405-.827.413.165,2.067,1.157,3.555,2.067V82.09l-2.315,1.323-2.149,1.24-1.405.827-.413-.165-2.067-1.157L-470.3,82.09l-.083-6.283-.661-.579-1.157-.909-1.075-.909-.744-.579-1.323-1.075-1.157-.909-1.405-1.157-.248-.083-.992,1.984-.992,1.653-1.075,1.571-.909,1.157-.744.909-.992,1.075-1.736,1.736-1.819,1.488-1.571,1.157-1.488,1.075-1.571,1.157-1.405.992-1.323.992-2.976,2.149-1.24.909-2.976,2.149-.992.744-.083,8.1.413.165,2.067,1.157,1.405.827,1.571.909v6.944l-2.315,1.323-2.149,1.24-1.405.827-.413-.165-2.067-1.157-3.555-2.067v-6.944l2.315-1.323,2.149-1.24.827-.5h.165l-.083-8.1-1.075-.827-1.157-.827-2.976-2.149-1.571-1.157-1.488-1.075-1.571-1.157-1.157-.827-1.571-1.157-1.488-1.075-.909-.661-1.075-.827-.909-.744-1.24-1.157-1.571-1.571-.744-.909-1.075-1.323-.909-1.323L-527.672,72l-1.157-2.232-.413-.909-.5.331-1.405,1.157-.827.661-1.323,1.075L-534.45,73l-1.405,1.157-.827.661-.083,6.779-2.315,1.323-2.149,1.24-1.405.827-.413-.165-2.067-1.157-3.555-2.067V74.65l2.315-1.323,2.149-1.24,1.405-.827.413.165,2.067,1.157,1.984,1.157.579.331.413-.083,1.075-.909.744-.579,1.323-1.075,1.157-.909,1.405-1.157,1.323-1.075.5-.413h.165l-.909-2.728-.413-1.571-.413-2.232-.165-1.24-.083-1.075-.083-.165-.083-25.875-1.075-.909-1.075-.827-1.405-1.157-.827-.661-1.323-1.075-.413-.248-2.067,1.157L-542.965,31l-.413-.165-2.067-1.157L-549,27.611V20.667l2.315-1.323,2.149-1.24,1.405-.827.413.165,2.067,1.157,3.555,2.067.083,6.779,1.157.909,1.405,1.157,1.157.909,1.405,1.157.331.248.744-.165,1.984-.744,2.067-.744,2.893-1.075,1.9-.661,1.736-.661,1.9-.661,1.736-.661,1.9-.661,1.736-.661,1.9-.661,1.736-.661,1.9-.661,1.736-.661,1.405-.5h.248v-8.6l-.413-.165-2.067-1.157-1.405-.827-1.571-.909V3.389l2.315-1.323,2.149-1.24Zm0,.909-1.405.827-2.149,1.24-1.075.661.413.331,2.067,1.157,1.405.827.744.413.331-.083,2.067-1.157,1.405-.827.992-.579-.248-.248-4.3-2.48Zm-5.043,3.472V9.838l1.075.661,2.315,1.323,1.24.744h.083V7.027l-2.067-1.157L-508,4.712Zm10.168,0L-500.8,5.7l-2.149,1.24-.165.083v5.539l1.24-.661,1.405-.827,1.984-1.157.083-.083V4.381Zm-44.641,13.806-1.405.827-2.149,1.24-1.075.661.413.331,2.067,1.157,1.405.827.744.413.331-.083,2.067-1.157,1.405-.827.992-.579-.248-.248-4.3-2.48Zm80.271.5-1.405.827-2.149,1.24-1.075.661.413.331,2.067,1.157,1.405.827.744.413.331-.083,2.067-1.157,1.405-.827.992-.579-.248-.248-4.3-2.48Zm-85.314,2.976v5.456l1.075.661,2.315,1.323,1.24.744h.083V24.3l-2.067-1.157-1.984-1.157Zm10.168,0-2.315,1.323-2.149,1.24-.165.083v5.539l1.24-.661,1.405-.827,1.984-1.157.083-.083V21.659Zm70.1.5v5.456l1.075.661,2.315,1.323,1.24.744h.083V24.8l-2.067-1.157-1.984-1.157Zm10.168,0-2.315,1.323-2.149,1.24-.165.083v5.539l1.24-.661,1.405-.827,1.984-1.157.083-.083V22.155Zm-45.3,4.795v4.877l.744.248.579.413.5.744.165.579.083.661.992.413,11.16,4.051,1.984.744.331-.165.413-.413.661-.331.331-.083h.909l.744.248.413.248,1.405-1.157,1.157-.909.413-.413V35.3l-.992-.413-3.637-1.323-2.893-1.075-1.9-.661-2.48-.909-2.067-.744-2.48-.909-1.984-.744-1.9-.661-1.736-.661Zm-1.075,0-1.9.661-3.8,1.405-1.9.661-4.96,1.819-1.984.744-1.9.661-1.736.661-1.9.661-2.728.992-.083.331.744.661.827.661,1.323,1.075,1.157.909.248.165.909-.331h.909l.744.248.579.413.5-.083,2.48-.909,2.976-1.075,2.48-.909,2.728-.992,2.232-.827.165-.083.165-.992.331-.661.331-.413.661-.413.579-.165-.083-4.877Zm-22.9,9.92V58.2l.248,2.315.5,2.563.413,1.488h.248l1.323-1.075.413-.331-.165-.827v-.909l.248-.744.5-.661.661-.413.413-.165-.083-1.24-.083-14.8-.744-.5-.5-.744-.165-.579v-.909l.248-.744V39.6l-1.075-.909-1.653-1.323-.661-.5Zm46.79,1.24-1.405,1.157-.744.579.165.827v.909l-.248.744-.413.579-.744.5-1.075.248-.083,14.55-.248,1.984.083.413.413.331.5.744.165.579v1.323l.827.744,1.157.909.331.165.331-.909.5-1.819.413-2.149.248-2.4V38.11ZM-523.29,63.9-524.7,65.06l-.661.5.083.579.579,1.405.661,1.323.827,1.488.992,1.488.992,1.323.827.909.579.661,1.323,1.323.909.744.992.827,1.157.827,2.976,2.149,1.571,1.157,1.488,1.075,1.571,1.157,1.157.827,1.488,1.075.992.744h.165V82.586l-.744-.331-.5-.331-.5-.744-.165-.579V79.279l-2.976-2.149-1.571-1.157-2.976-2.149-1.405-1.075-.827-.744-.661-.579-1.075-1.157-1.075-1.405-.909-1.405-.909-1.653-.579-1.405-.248-.083h-.909l-.744-.248-.248-.165Zm38.854.5-.827.579-.579.165-.661.083-.661,1.323-.744,1.323-.909,1.323-1.075,1.323-1.24,1.323-1.157.992-1.736,1.323-1.405.992L-497,76.3l-2.976,2.149-.992.744-.083.083V80.6l-.248.744-.413.579-.744.5-.579.165v4.133l.744-.5,1.323-.992,1.488-1.075.909-.661,1.488-1.075,1.571-1.157,1.488-1.075,1.571-1.157,1.157-.827,1.323-.992,1.075-.909.992-.909,1.075-1.075.579-.661.992-1.24.992-1.405,1.157-1.984.661-1.323.5-1.075-.083-.331-1.075-.909-1.157-.909ZM-542.8,72.17l-1.405.827-2.149,1.24-1.075.661.413.331,2.067,1.157,1.405.827.744.413.331-.083,2.067-1.157,1.405-.827.909-.579-.413-.413-2.067-1.157-1.405-.827-.661-.413Zm78.37.5-1.405.827-2.149,1.24-1.075.661.413.331,2.067,1.157,1.405.827.744.413.331-.083,2.067-1.157,1.405-.827.992-.579-.248-.248-4.3-2.48Zm-83.413,2.976V81.1l1.075.661,2.315,1.323,1.24.744h.083V78.287L-545.2,77.13l-1.984-1.157Zm10.168,0-2.315,1.323-2.149,1.24-.165.083v5.539l1.24-.661,1.405-.827,1.984-1.157.083-.083V75.642Zm68.2.5v5.456l1.075.661,2.315,1.323,1.24.744h.083V78.783l-2.067-1.157-1.984-1.157Zm10.168,0-2.315,1.323-2.149,1.24-.165.083v5.539l1.24-.661,1.405-.827,1.984-1.157.083-.083V76.138Zm-44.31,25.049-1.405.827-2.149,1.24-1.075.661.413.331,2.067,1.157,1.405.827.744.413.331-.083,2.067-1.157,1.405-.827.992-.579-.248-.248-4.3-2.48Zm-5.043,3.472v5.456l1.075.661,2.315,1.323,1.24.744h.083V107.3l-2.067-1.157L-508,104.989Zm10.168,0-2.315,1.323-2.149,1.24-.165.083v5.539l1.24-.661,1.405-.827,1.984-1.157.083-.083v-5.456Z" transform="translate(574.628 7)" fill="#35ba64"/>
    <path id="Path_209" data-name="Path 209" d="M-117.418,0l.248.083V.248l.331-.083-.165.909-.248.331.331.083.083.248,1.075.165.579.5.744.331h.413l.248-.661.331-.248h.5l1.075.413,1.323.165.413-.165.165.331.331-.331.083.083.744.083.248.331V3.72l-.331-.165.083.248.248.5.579.744.248.579.413.5.248,1.075.5.413.5.909,1.157.909.331.248-.083.579.5.248.744-.083.827-.331.744-.248.331.083v.744l-.827,1.984-.744,1.157-.661.661-.661.579-.744.909-.331.331-.248.579-.248.248v.579l.248,1.405.248.579v1.24l-.165.744-.413.413-1.24.744-.579.5.083.744v.909l-.5.413-.579.331-.165.827-.331.5-.661.744-.579.661-.661.413-.909.165-.827.083-.909.083-.413-.413-.165-.331.165-.248-.744-1.405-.413-.661-.165-.5-.248-1.323-.827-1.571-.083-.248V21.411l.248-.744.331-.5v-.579l-.248-1.157-.5-1.24-.909-1.157-.165-.248.083-.579.165-1.405V13.64l-.413-.248h-1.075l-.5-.661h-1.24l-1.157.5-1.323-.083-1.075.165-.579-.248-.827-.744-.661-.661-.331-.744-.744-.909-.165-.248V9.011L-128,8.68l.413-1.075.083-.5V5.7l.579-.827.579-.744.579-.661.413-.248.579-.248.331-.413.331-.827.579-.5.661-.5.413-.413.248.248.992.083.827-.413.579-.083h.992l1.075-.083Z" transform="translate(185.869 50.649)" fill="#236cc1"/>
    <path id="Path_210" data-name="Path 210" d="M-42.2,0l.165.331.744,1.736.661,1.323.909,1.571.827,1.24.992,1.323.827.909.579.661,1.24,1.24.909.744.992.827,1.157.827,2.976,2.149,1.571,1.157,1.488,1.075,1.571,1.157,1.157.827,1.488,1.075,1.157.827v5.869l-.744-.5L-23.1,25.214l-2.976-2.149-1.571-1.157-1.488-1.075-1.571-1.157-1.157-.827-1.571-1.157-1.488-1.075-.909-.661-1.075-.827-.909-.744-1.24-1.157-1.571-1.571-.744-.909-1.075-1.323L-43.355,8.1l-1.075-1.736-1.157-2.232L-46,3.224l.083-.248,1.157-.909L-43.355.909Z" transform="translate(91.386 72.639)" fill="#236dc1"/>
    <path id="Path_211" data-name="Path 211" d="M-233.92,0l.661.5,1.405,1.157,1.157.909.579.5-.165.5-.827,1.653-.992,1.653-1.075,1.571-.909,1.157-.744.909-.992,1.075-1.736,1.736-1.819,1.488-1.571,1.157-1.488,1.075-1.571,1.157-1.405.992-1.323.992-2.976,2.149-1.24.909-2.976,2.149-.992.744H-255V20.336l.909-.744,1.405-.992,1.571-1.157,1.157-.827,1.571-1.157,2.976-2.149,1.571-1.157,1.488-1.075.909-.744,1.157-.992,1.405-1.405.579-.661.992-1.24.992-1.405,1.157-1.984.661-1.323Z" transform="translate(326.592 73.383)" fill="#236dc1"/>
    <path id="Path_212" data-name="Path 212" d="M0,0,.661.5l1.075.909.827.661,1.157.909.992.827.083,21.411.248,2.315.5,2.563.413,1.488-.083.248-.744.579L2.48,34.555l-.413.248-.579-1.571L.909,31.249.5,29.347.165,27.115.083,26.041,0,25.875Z" transform="translate(42.906 39.985)" fill="#236cc1"/>
    <path id="Path_213" data-name="Path 213" d="M-67.883,0h.083V24.553l-.083.248-.165,1.571-.331,2.149-.579,2.4-.909,2.728-.331.661-.661-.5-.909-.744-1.323-1.075L-74,31.249l.165-.744.579-2.067.413-2.149.248-2.4V3.8l.827-.661L-69.123.992l1.157-.909Z" transform="translate(167.086 41.225)" fill="#236cc1"/>
    <path id="Path_214" data-name="Path 214" d="M0,0,2.563.909l2.48.909,1.984.744,1.9.661,1.736.661,1.9.661,1.736.661,1.9.661,1.736.661,1.9.661,1.736.661,1.9.661,1.736.661,1.9.661.579.248v.992l-.909.744L25.462,12.9l-1.157.909-1.075.909-.248.083L22.9,13.392l-3.885-1.405-2.48-.909-1.984-.744-1.9-.661-1.736-.661-1.9-.661L6.531,7.44,4.547,6.7l-1.9-.661L.909,5.373,0,5.043Z" transform="translate(71.592 28.907)" fill="#236dc1"/>
    <path id="Path_215" data-name="Path 215" d="M-301.8,0h.248V4.96l-.827.331-4.133,1.488-2.48.909-3.389,1.24-3.637,1.323-2.067.744-1.736.661-1.9.661-2.728.992-.165.248-1.157-.992-1.157-.909-1.405-1.157L-329,10l.331-.248,1.9-.661,1.736-.661,1.9-.661,1.736-.661,1.9-.661,1.736-.661,1.9-.661,1.736-.661,1.9-.661,1.736-.661,1.9-.661,1.736-.661,1.9-.661L-303.207.5Z" transform="translate(372.154 28.99)" fill="#236dc1"/>
    <path id="Path_216" data-name="Path 216" d="M-104.576,0h1.736l.827.248.827.579.827.744.5.248.827.083h1.9l2.563.331.909.331.661.579.661,1.323L-91.6,6.2l.909,1.653.661.827.413.413.661.5.744.248,1.488.331.5.331.331.413.165.413v1.157l-.331.992-.661,1.24-.827,1.075-1.075,1.157-.579.827-.331.909v1.24l.083.661v1.157l-.248.992-.579.909-.744.827-.579.909-.827,1.736-.992,1.405-.661.827-.827.827-.992.579-1.075.331-.413.083h-.992l-.827-.248-.661-.413-.5-.579-.744-1.405-.827-2.149-.827-2.315-.165-.827v-.744l.165-1.157V19.84l-.413-.992-.661-1.405-.5-1.323-.579-.661-.579-.248h-1.323l-.661.083h-2.067l-1.075-.331-.909-.579-.661-.661-.827-1.075-.579-.992-.331-.992-.083-.5V9.424l.331-2.067.413-1.323.579-1.075.992-1.075,1.653-1.653.579-.661.909-.661.992-.413Zm2.149.992-1.488.165h-.909l-.579.083-.827.413-.992-.083-.331-.248-.579.661-.827.579-.331.5-.248.661-.5.413-.661.248-.413.5-.331.331-.5.661-.579.827V8.1l-.248.992-.248.744.083.5v.413l.827,1.075.248.331.248.579,1.157,1.157.5.331.5.083.909-.165h.579l.744.083,1.157-.5h1.24l.5.661h1.075l.413.248-.083.909-.165.909.083.413.661.909.413.579.5,1.323.165.909v.579l-.413.661-.165.579v1.075l.661,1.323.331.744.248,1.323.413.827.413.661.413.909-.165.248.413.579.413.083.992-.165h.744l.827-.248.744-.579.992-1.157.413-.661.083-.661.827-.5.248-.248v-.909l-.083-.744.827-.661,1.075-.661.331-.331.165-.744v-1.24l-.331-.827-.165-1.157V18.1l.331-.331.248-.579.909-.992.579-.661.661-.579.579-.744.661-1.323.5-1.24v-.744l-.331-.083-.827.331-1.075.331-.579-.083-.331-.165.083-.579-1.157-.909-.413-.331L-91.6,8.6l-.5-.413-.248-1.075-.5-.579-.331-.744-.579-.744-.248-.579.248.248h.165V3.72l-.248-.331-.744-.083h-.248l-.165.248-.165-.331-.413.165-1.323-.165-1.075-.413h-.5l-.413.331-.165.579-.579-.083-.827-.413-.331-.331-1.075-.165-.165-.331-.248-.083.248-.248.083-.579.083-.331-.331.083-.083-.248Z" transform="translate(170.877 49.657)" fill="#3bc968"/>
    <path id="Path_243" data-name="Path 243" d="M-14.677,0h.744l.661.331.5.579.165.413v.744l-.331.661-.579.5-.413.165h-.744l-.661-.331-.5-.579L-16,2.067V1.323l.331-.661.579-.5Z" transform="translate(85.443 85.453)" fill="#fefefe"/>
    <path id="Path_244" data-name="Path 244" d="M-14.677,0h.744l.661.331.5.579.165.413v.744l-.331.661-.579.5-.413.165h-.744l-.661-.331-.5-.579L-16,2.067V1.323l.331-.661.579-.5Z" transform="translate(102.638 68.009)" fill="#fefefe"/>
    <path id="Path_245" data-name="Path 245" d="M-14.677,0h.744l.661.331.5.579.165.413v.744l-.331.661-.579.5-.413.165h-.744l-.661-.331-.5-.579L-16,2.067V1.323l.331-.661.579-.5Z" transform="translate(67.339 67.183)" fill="#fefefe"/>
    <path id="Path_246" data-name="Path 246" d="M-14.677,0h.744l.661.331.5.579.165.413v.744l-.331.661-.579.5-.413.165h-.744l-.661-.331-.5-.579L-16,2.067V1.323l.331-.661.579-.5Z" transform="translate(104.291 46.433)" fill="#fefefe"/>
    <path id="Path_247" data-name="Path 247" d="M-14.677,0h.744l.661.331.5.579.165.413v.744l-.331.661-.579.5-.413.165h-.744l-.661-.331-.5-.579L-16,2.067V1.323l.331-.661.579-.5Z" transform="translate(67.587 46.433)" fill="#fefefe"/>
    <path id="Path_248" data-name="Path 248" d="M-14.677,0h.744l.661.331.5.579.165.413v.744l-.331.661-.579.5-.413.165h-.744l-.661-.331-.5-.579L-16,2.067V1.323l.331-.661.579-.5Z" transform="translate(85.443 39.571)" fill="#fefefe"/>
    <g id="Group_215" data-name="Group 215" transform="translate(132 96)">
      <path id="Path_217" data-name="Path 217" d="M0,0H4.642l.516,2.321.774,5.416L7.737,0h4.9l1.547,7.221h.258L15.474,0h4.642l-.258,2.063L17.279,13.411l-.258.258H11.605L10.316,7.221l-.258-.258-1.289,6.19-.258.516H3.095Z" transform="translate(37.395 0.258)" fill="#00aeef"/>
      <path id="Path_218" data-name="Path 218" d="M0,0H4.384L8.253,5.932l.258.516L8.769,0h4.384V13.669H8.769L4.384,7.221l-.258,6.447H0Z" transform="translate(0 0.258)" fill="#00aeef"/>
      <path id="Path_225" data-name="Path 225" d="M-16.326,0h3.095l2.321,1.032,1.805,1.547,1.032,2.063.258,1.032V8.253l-.774,2.321-1.805,2.063-2.579,1.289h-3.868l-2.579-1.289-1.547-1.805-.774-1.547L-22,6.19l.774-2.579,1.547-2.063L-17.358.258Zm.774,3.868-1.289.774-.774,1.547.258,2.579,1.547,1.289h1.805l1.289-.774.516-1.032V5.674l-1.289-1.547Z" transform="translate(80.801 0)" fill="#00aeef"/>
      <path id="Path_229" data-name="Path 229" d="M0,0H7.995l2.063,1.032,1.289,1.547.258,2.579-.774,1.805L9.284,8.253H8.769l1.547,3.095,1.289,2.321h-4.9L4.384,9.284l-.258,4.384H0ZM4.126,3.611V5.674l.258.258H6.447l.774-.516V4.126l-.516-.516Z" transform="translate(74.533 0.258)" fill="#00aeef"/>
      <path id="Path_231" data-name="Path 231" d="M0,0H4.126V5.416h.516l.516-1.289L7.995,0h4.9L11.863,1.805,8.511,6.447l1.805,2.837,2.837,3.868v.516h-4.9L6.19,10.832,4.642,8.511V7.995H4.126v5.674H0Z" transform="translate(87.428 0.258)" fill="#00aeef"/>
      <path id="Path_240" data-name="Path 240" d="M0,0H9.026V3.353h-4.9L4.384,4.9l4.126.258V8.253l-4.126.258v1.547l4.642.258v3.353H0Z" transform="translate(15.216 0.258)" fill="#00aeef"/>
      <path id="Path_249" data-name="Path 249" d="M0,0H11.348V3.353H7.737V13.669H3.611V3.353H0Z" transform="translate(25.274 0.258)" fill="#00aeef"/>
    </g>
    <g id="Group_216" data-name="Group 216" transform="translate(15.96 -2.67)">
      <path id="Path_219" data-name="Path 219" d="M0,0H4.384L8.253,5.932l.258.516L8.769,0h4.384V13.669H8.769L4.384,7.221l-.258,6.447H0Z" transform="translate(234.158 75.928)" fill="#00aeef"/>
      <path id="Path_223" data-name="Path 223" d="M0,0H8.769l1.805,1.032.774,1.032V4.9L10.316,6.19,9.8,6.705l1.547,1.289.258.516v2.837l-1.032,1.547-2.063.774H0ZM4.126,3.353V5.158l.258.258H6.19L6.963,4.9V3.611l-.258-.258Zm0,4.9v1.805l.258.258H6.705l.774-.774L6.963,8.253Z" transform="translate(116.04 75.928)" fill="#00aeef"/>
      <path id="Path_226" data-name="Path 226" d="M-16.326,0h3.095l2.321,1.032,1.805,1.547,1.032,2.063.258,1.032V8.253l-.774,2.321-1.805,2.063-2.579,1.289h-3.868l-2.579-1.289-1.547-1.805-.774-1.547L-22,6.19l.774-2.579,1.547-2.063L-17.358.258Zm.774,3.868-1.289.774-.774,1.547.258,2.579,1.547,1.289h1.805l1.289-.774.516-1.032V5.674l-1.289-1.547Z" transform="translate(160.477 75.67)" fill="#00aeef"/>
      <path id="Path_228" data-name="Path 228" d="M0,0H4.126V4.9H8.253V0h4.384V13.669H8.253V8.253l-3.868.258-.258,5.158H0Z" transform="translate(198.31 75.928)" fill="#00aeef"/>
      <path id="Path_232" data-name="Path 232" d="M0,0H4.126V5.416h.516l.516-1.289L7.995,0h4.9L11.863,1.805,8.511,6.447l1.805,2.837,2.837,3.868v.516h-4.9L6.19,10.832,4.642,8.511V7.995H4.126v5.674H0Z" transform="translate(168.909 75.928)" fill="#00aeef"/>
      <path id="Path_233" data-name="Path 233" d="M-14.1,0h5.158l2.321,6.19,2.579,6.963v.516H-8.684L-9.2,11.605h-4.642l-.516,2.063H-19l1.547-4.642Zm2.321,4.9-.774,2.321V8.511h2.063l.258-.516L-11.263,4.9Z" transform="translate(230.721 75.928)" fill="#00aeef"/>
      <path id="Path_238" data-name="Path 238" d="M-17.068,0l3.353.258,2.579,1.547,1.289,2.063.258,1.547h-4.642l-1.032-1.032h-2.063l-1.032,1.547V7.995l.774,1.547.516.258h1.547l1.032-.516.258-.516h4.642l-.258,1.547-1.547,2.063-2.063,1.289-.774.258H-18.1l-2.579-1.289-1.289-1.547-.774-1.805L-23,7.995l.258-3.353,1.032-2.063L-19.647.774Z" transform="translate(206.094 75.67)" fill="#00aeef"/>
      <path id="Path_239" data-name="Path 239" d="M-17.068,0l3.353.258,2.579,1.547,1.289,2.063.258,1.547h-4.642l-1.032-1.032h-2.063l-1.032,1.547V7.995l.774,1.547.516.258h1.547l1.032-.516.258-.516h4.642l-.258,1.547-1.547,2.063-2.063,1.289-.774.258H-18.1l-2.579-1.289-1.289-1.547-.774-1.805L-23,7.995l.258-3.353,1.032-2.063L-19.647.774Z" transform="translate(176.951 75.67)" fill="#00aeef"/>
      <path id="Path_251" data-name="Path 251" d="M0,0H4.126V10.316H8.253v3.353H0Z" transform="translate(129.193 75.928)" fill="#00aeef"/>
      <path id="Path_253" data-name="Path 253" d="M0,0H4.126V13.669H0Z" transform="translate(227.969 75.928)" fill="#00aeef"/>
    </g>
    <g id="Group_217" data-name="Group 217" transform="translate(17.96 -1.201)">
      <path id="Path_220" data-name="Path 220" d="M0,0H4.384L8.253,5.932l.258.516L8.769,0h4.384V13.669H8.769L4.384,7.221l-.258,6.447H0Z" transform="translate(177.483 52.459)" fill="#00aeef"/>
      <path id="Path_221" data-name="Path 221" d="M0,0H4.384L8.253,5.932l.258.516L8.769,0h4.384V13.669H8.769L4.384,7.221l-.258,6.447H0Z" transform="translate(114.04 52.459)" fill="#00aeef"/>
      <path id="Path_227" data-name="Path 227" d="M-16.326,0h3.095l2.321,1.032,1.805,1.547,1.032,2.063.258,1.032V8.253l-.774,2.321-1.805,2.063-2.579,1.289h-3.868l-2.579-1.289-1.547-1.805-.774-1.547L-22,6.19l.774-2.579,1.547-2.063L-17.358.258Zm.774,3.868-1.289.774-.774,1.547.258,2.579,1.547,1.289h1.805l1.289-.774.516-1.032V5.674l-1.289-1.547Z" transform="translate(183.751 52.201)" fill="#00aeef"/>
      <path id="Path_234" data-name="Path 234" d="M-14.1,0h5.158l2.321,6.19,2.579,6.963v.516H-8.684L-9.2,11.605h-4.642l-.516,2.063H-19l1.547-4.642Zm2.321,4.9-.774,2.321V8.511h2.063l.258-.516L-11.263,4.9Z" transform="translate(210.668 52.459)" fill="#00aeef"/>
      <path id="Path_235" data-name="Path 235" d="M-14.1,0h5.158l2.321,6.19,2.579,6.963v.516H-8.684L-9.2,11.605h-4.642l-.516,2.063H-19l1.547-4.642Zm2.321,4.9-.774,2.321V8.511h2.063l.258-.516L-11.263,4.9Z" transform="translate(146.967 52.459)" fill="#00aeef"/>
      <path id="Path_250" data-name="Path 250" d="M0,0H11.348V3.353H7.737V13.669H3.611V3.353H0Z" transform="translate(143.183 52.459)" fill="#00aeef"/>
      <path id="Path_252" data-name="Path 252" d="M0,0H4.126V10.316H8.253v3.353H0Z" transform="translate(207.657 52.459)" fill="#00aeef"/>
      <path id="Path_254" data-name="Path 254" d="M0,0H4.126V13.669H0Z" transform="translate(156.078 52.459)" fill="#00aeef"/>
    </g>
    <g id="Group_213" data-name="Group 213" transform="translate(132 29)">
      <g id="Group_212" data-name="Group 212">
        <path id="Path_222" data-name="Path 222" d="M0,0H4.384L8.253,5.932l.258.516L8.769,0h4.384V13.669H8.769L4.384,7.221l-.258,6.447H0Z" transform="translate(27.079)" fill="#3cca69"/>
        <path id="Path_224" data-name="Path 224" d="M0,0H8.769l1.805,1.032.774,1.032V4.9L10.316,6.19,9.8,6.705l1.547,1.289.258.516v2.837l-1.032,1.547-2.063.774H0ZM4.126,3.353V5.158l.258.258H6.19L6.963,4.9V3.611l-.258-.258Zm0,4.9v1.805l.258.258H6.705l.774-.774L6.963,8.253Z" transform="translate(60.606)" fill="#3cca69"/>
        <path id="Path_230" data-name="Path 230" d="M0,0H7.995l2.063,1.032,1.289,1.547.258,2.579-.774,1.805L9.284,8.253H8.769l1.547,3.095,1.289,2.321h-4.9L4.384,9.284l-.258,4.384H0ZM4.126,3.611V5.674l.258.258H6.447l.774-.516V4.126l-.516-.516Z" transform="translate(88.975)" fill="#3cca69"/>
        <path id="Path_236" data-name="Path 236" d="M-14.1,0h5.158l2.321,6.19,2.579,6.963v.516H-8.684L-9.2,11.605h-4.642l-.516,2.063H-19l1.547-4.642Zm2.321,4.9-.774,2.321V8.511h2.063l.258-.516L-11.263,4.9Z" transform="translate(91.986)" fill="#3cca69"/>
        <path id="Path_237" data-name="Path 237" d="M-14.1,0h5.158l2.321,6.19,2.579,6.963v.516H-8.684L-9.2,11.605h-4.642l-.516,2.063H-19l1.547-4.642Zm2.321,4.9-.774,2.321V8.511h2.063l.258-.516L-11.263,4.9Z" transform="translate(30.09)" fill="#3cca69"/>
        <path id="Path_241" data-name="Path 241" d="M0,0H10.316V3.095L4.9,10.316h5.416v3.353H0V10.316L3.095,6.19,5.158,3.353H0Z" transform="translate(42.296)" fill="#3cca69"/>
        <path id="Path_242" data-name="Path 242" d="M0,0H10.316V3.095L4.9,10.316h5.416v3.353H0V10.316L3.095,6.19,5.158,3.353H0Z" fill="#3cca69"/>
        <path id="Path_255" data-name="Path 255" d="M0,0H4.126V13.669H0Z" transform="translate(54.417)" fill="#3cca69"/>
      </g>
    </g>
  </g>
</svg>
